<svg width="169" height="41" viewBox="0 0 169 41" xmlns="http://www.w3.org/2000/svg"><title>logo</title><g fill="#000" fill-rule="evenodd"><path d="M22.814 12.424c-.772-.967-1.782-1.735-3.03-2.305-1.245-.57-2.448-.855-3.607-.855-.597 0-1.203.05-1.817.155a4.743 4.743 0 0 0-1.66.596 4.075 4.075 0 0 0-1.237 1.14c-.334.465-.5 1.06-.5 1.786 0 .62.13 1.14.394 1.553.264.415.65.777 1.16 1.088.508.31 1.114.595 1.817.854.702.26 1.492.527 2.37.803 1.264.414 2.58.872 3.95 1.373 1.37.5 2.617 1.165 3.74 1.993a10.528 10.528 0 0 1 2.792 3.082c.738 1.226 1.107 2.753 1.107 4.583 0 2.107-.396 3.93-1.186 5.465-.79 1.537-1.852 2.805-3.187 3.807-1.334 1-2.862 1.743-4.582 2.227-1.72.482-3.494.724-5.32.724-2.67 0-5.25-.458-7.744-1.373C3.78 38.207 1.71 36.904.06 35.21l5.898-5.903c.913 1.105 2.116 2.03 3.608 2.77 1.493.743 2.977 1.114 4.45 1.114.67 0 1.318-.068 1.95-.206a4.908 4.908 0 0 0 1.66-.673 3.39 3.39 0 0 0 1.132-1.242c.28-.518.422-1.14.422-1.864 0-.69-.176-1.278-.527-1.76-.35-.485-.852-.925-1.5-1.322-.65-.397-1.46-.76-2.424-1.088-.967-.328-2.065-.68-3.294-1.06a31.788 31.788 0 0 1-3.503-1.348 11.742 11.742 0 0 1-3.055-1.994 9.24 9.24 0 0 1-2.16-2.952c-.544-1.156-.816-2.563-.816-4.22 0-2.038.422-3.78 1.264-5.23.843-1.45 1.95-2.642 3.32-3.575C7.853 3.723 9.4 3.04 11.12 2.61c1.72-.432 3.46-.648 5.215-.648 2.107 0 4.258.38 6.453 1.14 2.195.76 4.117 1.88 5.768 3.366l-5.742 5.956zm29.024 11.29c0-1.347-.43-2.503-1.29-3.47-.86-.967-2.15-1.45-3.872-1.45-.843 0-1.615.13-2.318.388a6.028 6.028 0 0 0-1.843 1.062c-.527.45-.948.975-1.264 1.58a4.564 4.564 0 0 0-.526 1.89h11.114zm7.954 3.263v1.035c0 .346-.017.674-.052.984H40.724c.07.725.29 1.38.658 1.968.37.587.843 1.097 1.423 1.528a6.93 6.93 0 0 0 1.95 1.01c.718.242 1.465.363 2.237.363 1.37 0 2.53-.25 3.477-.75.947-.502 1.72-1.15 2.317-1.943l6.005 3.728c-1.23 1.76-2.854 3.116-4.873 4.066-2.02.95-4.364 1.424-7.033 1.424-1.967 0-3.828-.302-5.584-.906-1.756-.604-3.292-1.485-4.61-2.642-1.316-1.156-2.352-2.58-3.107-4.272-.755-1.692-1.132-3.625-1.132-5.8 0-2.107.37-4.014 1.106-5.723.737-1.71 1.738-3.16 3.003-4.35 1.264-1.192 2.756-2.115 4.477-2.77 1.72-.657 3.582-.985 5.584-.985 1.93 0 3.704.32 5.32.958 1.615.638 3.002 1.562 4.16 2.77 1.16 1.21 2.064 2.676 2.714 4.403.65 1.726.974 3.694.974 5.904zm5.48 12.584V.41h8.743v39.15H65.27zM98.93 23.715c0-1.347-.43-2.503-1.29-3.47-.86-.967-2.15-1.45-3.872-1.45-.843 0-1.615.13-2.318.388a6.028 6.028 0 0 0-1.843 1.062c-.527.45-.95.975-1.265 1.58a4.564 4.564 0 0 0-.526 1.89H98.93zm7.954 3.263v1.035c0 .346-.017.674-.053.984H87.817c.07.725.29 1.38.658 1.968.37.587.843 1.097 1.422 1.528a6.93 6.93 0 0 0 1.95 1.01c.72.242 1.465.363 2.238.363 1.37 0 2.528-.25 3.477-.75.95-.502 1.72-1.15 2.318-1.943l6.005 3.728c-1.23 1.76-2.853 3.116-4.872 4.066-2.018.95-4.362 1.424-7.03 1.424-1.968 0-3.83-.302-5.585-.906-1.756-.604-3.292-1.485-4.61-2.642-1.316-1.156-2.352-2.58-3.107-4.272-.755-1.692-1.132-3.625-1.132-5.8 0-2.107.368-4.014 1.106-5.723.737-1.71 1.738-3.16 3.002-4.35 1.264-1.192 2.757-2.115 4.478-2.77 1.72-.657 3.582-.985 5.583-.985 1.932 0 3.705.32 5.32.958 1.616.638 3.003 1.562 4.162 2.77 1.16 1.21 2.063 2.676 2.713 4.403.65 1.726.974 3.694.974 5.904zm22.598 12.584V25.476c0-.725-.062-1.416-.185-2.072a5.646 5.646 0 0 0-.605-1.735c-.28-.5-.676-.898-1.186-1.19-.51-.294-1.15-.44-1.922-.44-.773 0-1.45.146-2.028.44-.58.292-1.062.698-1.45 1.216a5.49 5.49 0 0 0-.868 1.787 7.57 7.57 0 0 0-.29 2.098V39.56h-8.69V13.77h8.374v3.574h.106a8.527 8.527 0 0 1 1.238-1.632 7.416 7.416 0 0 1 1.79-1.372c.685-.38 1.432-.69 2.24-.932a8.96 8.96 0 0 1 2.58-.363c1.756 0 3.25.31 4.478.932 1.23.622 2.22 1.425 2.976 2.41.755.983 1.3 2.113 1.633 3.39.333 1.278.5 2.556.5 3.833v15.95h-8.69zM168.544 36.32a13.977 13.977 0 0 1-9.786 3.96c-7.677 0-13.9-6.118-13.9-13.666 0-6.465 4.564-11.88 10.698-13.302-2.54 2.476-4.114 5.91-4.114 9.706 0 7.547 6.223 13.666 13.9 13.666 1.102 0 2.174-.126 3.202-.364z"/><path d="M161.902 16.548c3.13.112 5.635 2.644 5.635 5.75 0 3.178-2.62 5.755-5.853 5.755a5.888 5.888 0 0 1-3.876-1.443c.072.003.145.004.218.004 3.232 0 5.853-2.576 5.853-5.754a5.7 5.7 0 0 0-1.978-4.312z"/></g></svg>